<svg id="UOaCaV4qn7" viewBox="0 0 150 139.38043309249605" height="139.38043309249605" width="150" style="width: 150px; height: 139.38px; position: absolute; top: 50%; left: 50%; z-index: 0; cursor: pointer; transform: translate(-50%, -50%) scale(1.20533);"><defs id="SvgjsDefs1024"></defs><g id="SvgjsG1025" featurekey="e7LhAk-0" transform="matrix(0.75,0,0,0.75,37.5,-7.5)" fill="#6356e5"><rect xmlns="http://www.w3.org/2000/svg" x="10" y="10" width="23.333" height="23.333"></rect><rect xmlns="http://www.w3.org/2000/svg" x="10" y="66.667" width="23.333" height="23.333"></rect><rect xmlns="http://www.w3.org/2000/svg" x="66.667" y="10" width="23.333" height="23.333"></rect><polygon xmlns="http://www.w3.org/2000/svg" points="83.333,40 83.333,60 66.667,60 66.667,66.667 90,66.667 90,40 "></polygon><polygon xmlns="http://www.w3.org/2000/svg" points="66.667,73.333 66.667,90 73.333,90 73.333,80 83.333,80 83.333,90 90,90 90,73.333 "></polygon><polygon xmlns="http://www.w3.org/2000/svg" points="40,10 40,16.667 53.333,16.667 53.333,33.333 60,33.333 60,10 "></polygon><polygon xmlns="http://www.w3.org/2000/svg" points="53.333,40 53.333,53.333 40,53.333 40,73.333 53.333,73.333 53.333,90 60,90 60,66.667 46.667,66.667 46.667,60   60,60 60,46.667 66.667,46.667 66.667,53.333 73.333,53.333 73.333,40 "></polygon><rect xmlns="http://www.w3.org/2000/svg" x="40" y="80" width="6.667" height="10"></rect><rect xmlns="http://www.w3.org/2000/svg" x="23.333" y="53.333" width="10" height="6.667"></rect><polygon xmlns="http://www.w3.org/2000/svg" points="40,23.333 40,40 10,40 10,60 16.667,60 16.667,46.667 46.667,46.667 46.667,23.333 "></polygon></g><g id="SvgjsG1026" featurekey="Qg0WB5-0" transform="matrix(3.260869264602661,0,0,3.260869264602661,-2.99999805637044,63.923913381500796)" fill="#6356e5"><path d="M0.92 12.59 q0 -1.06 0.27 -2.035 t0.77 -1.83 t1.195 -1.555 t1.545 -1.195 t1.825 -0.77 t2.035 -0.275 q1.05 0 2.03 0.275 t1.83 0.77 t1.55 1.195 t1.195 1.555 t0.77 1.83 t0.275 2.035 q0 1.35 -0.43 2.57 t-1.195 2.195 t-1.82 1.66 t-2.305 0.975 l0 2.71 q0 0.44 -0.48 0.44 l-2.95 0 q-0.44 0 -0.44 -0.44 l0 -2.73 q-1.24 -0.3 -2.28 -0.985 t-1.795 -1.655 t-1.175 -2.18 t-0.42 -2.56 z M4.78 12.58 q0 0.83 0.28 1.55 t0.785 1.255 t1.195 0.84 t1.52 0.305 t1.525 -0.305 t1.2 -0.84 t0.785 -1.255 t0.28 -1.55 q0 -0.82 -0.28 -1.545 t-0.785 -1.265 t-1.2 -0.85 t-1.525 -0.31 t-1.52 0.31 t-1.195 0.85 t-0.785 1.265 t-0.28 1.545 z M18.7 5.59 q0.01 -0.17 0.125 -0.305 t0.305 -0.135 l2.97 0 q0.15 0 0.31 0.125 t0.16 0.315 l0 4.74 l4.97 0 l0 -4.74 q0 -0.18 0.125 -0.31 t0.325 -0.13 l2.93 0 q0.2 0 0.35 0.1 t0.15 0.32 l0 13.99 q0 0.22 -0.13 0.33 t-0.34 0.11 l-2.96 0 q-0.2 0 -0.325 -0.11 t-0.125 -0.33 l0 -5.68 l-4.97 0 l0 5.68 q0 0.21 -0.135 0.325 t-0.365 0.115 l-2.94 0 q-0.42 0 -0.43 -0.39 l0 -14.02 z M34.7 5.609999999999999 q0 -0.21 0.11 -0.335 t0.33 -0.125 l6.46 0 q1.03 0 1.93 0.385 t1.57 1.045 t1.055 1.545 t0.385 1.885 q0 0.68 -0.185 1.295 t-0.515 1.15 t-0.785 0.97 t-0.995 0.745 l2.57 4.84 q0.07 0.14 0.18 0.33 t0.11 0.33 q0 0.16 -0.105 0.245 t-0.285 0.085 l-3.43 0 q-0.17 0 -0.305 -0.1 t-0.175 -0.27 l-2.43 -4.57 l-1.62 0 l0 4.51 q0 0.43 -0.46 0.43 l-2.97 0 q-0.2 0 -0.32 -0.105 t-0.12 -0.325 l0 -13.96 z M42.53 10.05 q0 -0.3 -0.11 -0.6 t-0.31 -0.55 t-0.48 -0.42 t-0.62 -0.22 q-0.28 -0.02 -0.525 -0.035 t-0.535 -0.015 l-1.38 0 l0 3.67 l1.84 0 q0.18 0 0.32 -0.01 t0.31 -0.03 q0.35 -0.04 0.63 -0.205 t0.47 -0.41 t0.29 -0.55 t0.1 -0.625 z"></path></g></svg>